# Blender 3.6.3
# www.blender.org
mtllib spotlight.mtl
o Sphere
v 0.000000 0.038268 -0.092388
v 0.000000 -0.000000 -0.100000
v 0.000000 -0.038268 -0.092388
v 0.000000 -0.092388 -0.038268
v 0.014645 0.092388 -0.035355
v 0.027060 0.070711 -0.065328
v 0.035355 0.038268 -0.085355
v 0.038268 -0.000000 -0.092388
v 0.035355 -0.038268 -0.085355
v 0.027060 -0.070711 -0.065328
v 0.014645 -0.092388 -0.035355
v 0.027060 0.092388 -0.027060
v 0.050000 0.070711 -0.050000
v 0.065328 0.038268 -0.065328
v 0.070711 -0.000000 -0.070711
v 0.065328 -0.038268 -0.065328
v 0.050000 -0.070711 -0.050000
v 0.027060 -0.092388 -0.027060
v 0.035355 0.092388 -0.014645
v 0.065328 0.070711 -0.027060
v 0.085355 0.038268 -0.035355
v 0.092388 -0.000000 -0.038268
v 0.085355 -0.038268 -0.035355
v 0.065328 -0.070711 -0.027060
v 0.035355 -0.092388 -0.014645
v 0.038268 0.092388 -0.000000
v 0.070711 0.070711 -0.000000
v 0.092388 0.038268 -0.000000
v 0.100000 0.000000 0.000000
v 0.092388 -0.038268 0.000000
v 0.070711 -0.070711 0.000000
v 0.038268 -0.092388 0.000000
v 0.035355 0.092388 0.014645
v 0.065328 0.070711 0.027060
v 0.085355 0.038268 0.035355
v 0.092388 0.000000 0.038268
v 0.085355 -0.038268 0.035355
v 0.065328 -0.070711 0.027060
v 0.035355 -0.092388 0.014645
v 0.027060 0.092388 0.027060
v 0.050000 0.070711 0.050000
v 0.065328 0.038268 0.065328
v 0.070711 0.000000 0.070711
v 0.065328 -0.038268 0.065328
v 0.050000 -0.070711 0.050000
v 0.027060 -0.092388 0.027060
v 0.014645 0.092388 0.035355
v 0.027060 0.070711 0.065328
v 0.035355 0.038268 0.085355
v 0.038268 0.000000 0.092388
v 0.035355 -0.038268 0.085355
v 0.027060 -0.070711 0.065328
v 0.014645 -0.092388 0.035355
v 0.000000 0.092388 0.038268
v 0.000000 0.070711 0.070711
v 0.000000 0.038268 0.092388
v 0.000000 0.000000 0.100000
v 0.000000 -0.038268 0.092388
v 0.000000 -0.070711 0.070711
v 0.000000 -0.092388 0.038268
v 0.000000 -0.100000 0.000000
v 0.000000 0.100000 -0.000000
v -0.014645 0.092388 0.035355
v -0.027060 0.070711 0.065328
v -0.035355 0.038268 0.085355
v -0.038268 0.000000 0.092388
v -0.035355 -0.038268 0.085355
v -0.027060 -0.070711 0.065328
v -0.014645 -0.092388 0.035355
v -0.027060 0.092388 0.027060
v -0.050000 0.070711 0.050000
v -0.065328 0.038268 0.065328
v -0.070711 0.000000 0.070711
v -0.065328 -0.038268 0.065328
v -0.050000 -0.070711 0.050000
v -0.027060 -0.092388 0.027060
v -0.035355 0.092388 0.014645
v -0.065328 0.070711 0.027060
v -0.085355 0.038268 0.035355
v -0.092388 0.000000 0.038268
v -0.085355 -0.038268 0.035355
v -0.065328 -0.070711 0.027060
v -0.035355 -0.092388 0.014645
v -0.038268 0.092388 -0.000000
v -0.070711 0.070711 -0.000000
v -0.092388 0.038268 -0.000000
v -0.100000 0.000000 0.000000
v -0.092388 -0.038268 0.000000
v -0.070711 -0.070711 0.000000
v -0.038268 -0.092388 0.000000
v -0.035355 0.092388 -0.014645
v -0.065328 0.070711 -0.027060
v -0.085355 0.038268 -0.035355
v -0.092388 -0.000000 -0.038268
v -0.085355 -0.038268 -0.035355
v -0.065328 -0.070711 -0.027060
v -0.035355 -0.092388 -0.014645
v -0.027060 0.092388 -0.027060
v -0.050000 0.070711 -0.050000
v -0.065328 0.038268 -0.065328
v -0.070711 -0.000000 -0.070711
v -0.065328 -0.038268 -0.065328
v -0.050000 -0.070711 -0.050000
v -0.027060 -0.092388 -0.027060
v -0.014645 0.092388 -0.035355
v -0.027060 0.070711 -0.065328
v -0.035355 0.038268 -0.085355
v -0.038268 -0.000000 -0.092388
v -0.035355 -0.038268 -0.085355
v -0.027060 -0.070711 -0.065328
v -0.014645 -0.092388 -0.035355
v 0.000000 0.092388 -0.038268
v 0.000000 0.070711 -0.070711
v 0.000000 -0.070711 -0.070711
v 0.000000 -0.500000 -0.010000
v 0.000000 -0.000000 -0.010000
v 0.003827 -0.500000 -0.009239
v 0.003827 -0.000000 -0.009239
v 0.007071 -0.500000 -0.007071
v 0.007071 -0.000000 -0.007071
v 0.009239 -0.500000 -0.003827
v 0.009239 -0.000000 -0.003827
v 0.010000 -0.500000 0.000000
v 0.010000 0.000000 0.000000
v 0.009239 -0.500000 0.003827
v 0.009239 0.000000 0.003827
v 0.007071 -0.500000 0.007071
v 0.007071 0.000000 0.007071
v 0.003827 -0.500000 0.009239
v 0.003827 0.000000 0.009239
v 0.000000 -0.500000 0.010000
v 0.000000 0.000000 0.010000
v -0.003827 -0.500000 0.009239
v -0.003827 0.000000 0.009239
v -0.007071 -0.500000 0.007071
v -0.007071 0.000000 0.007071
v -0.009239 -0.500000 0.003827
v -0.009239 0.000000 0.003827
v -0.010000 -0.500000 0.000000
v -0.010000 0.000000 0.000000
v -0.009239 -0.500000 -0.003827
v -0.009239 -0.000000 -0.003827
v -0.007071 -0.500000 -0.007071
v -0.007071 -0.000000 -0.007071
v -0.003827 -0.500000 -0.009239
v -0.003827 -0.000000 -0.009239
vn 0.1098 -0.8264 -0.5522
vn 0.1915 -0.1915 -0.9626
vn 0.1632 0.5481 -0.8203
vn 0.0388 0.9800 -0.1949
vn 0.0388 -0.9800 -0.1949
vn 0.1632 -0.5481 -0.8203
vn 0.1915 0.1915 -0.9626
vn 0.1098 0.8264 -0.5522
vn 0.1104 0.9800 -0.1653
vn 0.1104 -0.9800 -0.1653
vn 0.4647 -0.5481 -0.6954
vn 0.5453 0.1915 -0.8161
vn 0.3128 0.8264 -0.4681
vn 0.3128 -0.8264 -0.4681
vn 0.5453 -0.1915 -0.8161
vn 0.4647 0.5481 -0.6955
vn 0.6954 -0.5481 -0.4647
vn 0.8161 0.1915 -0.5453
vn 0.4681 0.8264 -0.3128
vn 0.4681 -0.8264 -0.3128
vn 0.8161 -0.1915 -0.5453
vn 0.6955 0.5481 -0.4647
vn 0.1653 0.9800 -0.1104
vn 0.1653 -0.9800 -0.1104
vn 0.5522 -0.8264 -0.1098
vn 0.9626 -0.1915 -0.1915
vn 0.8203 0.5481 -0.1632
vn 0.1949 0.9800 -0.0388
vn 0.1949 -0.9800 -0.0388
vn 0.8203 -0.5481 -0.1632
vn 0.9626 0.1915 -0.1915
vn 0.5522 0.8264 -0.1098
vn 0.9626 -0.1915 0.1915
vn 0.8203 0.5481 0.1632
vn 0.1949 0.9800 0.0388
vn 0.1949 -0.9800 0.0388
vn 0.8203 -0.5481 0.1632
vn 0.9626 0.1915 0.1915
vn 0.5522 0.8264 0.1098
vn 0.5522 -0.8264 0.1098
vn 0.1653 -0.9800 0.1104
vn 0.6954 -0.5481 0.4647
vn 0.8161 0.1915 0.5453
vn 0.4681 0.8264 0.3128
vn 0.4681 -0.8264 0.3128
vn 0.8161 -0.1915 0.5453
vn 0.6955 0.5481 0.4647
vn 0.1653 0.9800 0.1104
vn 0.5453 0.1915 0.8161
vn 0.3128 0.8264 0.4681
vn 0.3128 -0.8264 0.4681
vn 0.5453 -0.1915 0.8161
vn 0.4647 0.5481 0.6955
vn 0.1104 0.9800 0.1653
vn 0.1104 -0.9800 0.1653
vn 0.4647 -0.5481 0.6954
vn 0.1098 -0.8264 0.5522
vn 0.1915 -0.1915 0.9626
vn 0.1632 0.5481 0.8203
vn 0.0388 0.9800 0.1949
vn 0.0388 -0.9800 0.1949
vn 0.1632 -0.5481 0.8203
vn 0.1915 0.1915 0.9626
vn 0.1098 0.8264 0.5522
vn -0.1632 0.5481 0.8203
vn -0.0388 0.9800 0.1949
vn -0.0388 -0.9800 0.1949
vn -0.1632 -0.5481 0.8203
vn -0.1915 0.1915 0.9626
vn -0.1098 0.8264 0.5522
vn -0.1098 -0.8264 0.5522
vn -0.1915 -0.1915 0.9626
vn -0.1104 -0.9800 0.1653
vn -0.4647 -0.5481 0.6954
vn -0.5453 0.1915 0.8161
vn -0.3128 0.8264 0.4681
vn -0.3128 -0.8264 0.4681
vn -0.5453 -0.1915 0.8161
vn -0.4647 0.5481 0.6955
vn -0.1104 0.9800 0.1653
vn -0.4681 0.8264 0.3128
vn -0.4681 -0.8264 0.3128
vn -0.8161 -0.1915 0.5453
vn -0.6955 0.5481 0.4647
vn -0.1653 0.9800 0.1104
vn -0.1653 -0.9800 0.1104
vn -0.6954 -0.5481 0.4647
vn -0.8161 0.1915 0.5453
vn -0.5522 -0.8264 0.1098
vn -0.9626 -0.1915 0.1915
vn -0.8203 0.5481 0.1632
vn -0.1949 0.9800 0.0388
vn -0.1949 -0.9800 0.0388
vn -0.8203 -0.5481 0.1632
vn -0.9626 0.1915 0.1915
vn -0.5522 0.8264 0.1098
vn -0.1949 0.9800 -0.0388
vn -0.1949 -0.9800 -0.0388
vn -0.8203 -0.5481 -0.1632
vn -0.9626 0.1915 -0.1915
vn -0.5522 0.8264 -0.1098
vn -0.5522 -0.8264 -0.1098
vn -0.9626 -0.1915 -0.1915
vn -0.8203 0.5481 -0.1632
vn -0.6954 -0.5481 -0.4647
vn -0.8161 0.1915 -0.5453
vn -0.4681 0.8264 -0.3128
vn -0.4681 -0.8264 -0.3128
vn -0.8161 -0.1915 -0.5453
vn -0.6955 0.5481 -0.4647
vn -0.1653 0.9800 -0.1104
vn -0.1653 -0.9800 -0.1104
vn -0.3128 -0.8264 -0.4681
vn -0.5453 -0.1915 -0.8161
vn -0.4647 0.5481 -0.6955
vn -0.1104 0.9800 -0.1653
vn -0.1104 -0.9800 -0.1653
vn -0.4647 -0.5481 -0.6954
vn -0.5453 0.1915 -0.8161
vn -0.3128 0.8264 -0.4681
vn -0.1915 -0.1915 -0.9626
vn -0.1632 0.5481 -0.8203
vn -0.0388 0.9800 -0.1949
vn -0.0388 -0.9800 -0.1949
vn -0.1632 -0.5481 -0.8203
vn -0.1915 0.1915 -0.9626
vn -0.1098 0.8264 -0.5522
vn -0.1098 -0.8264 -0.5522
vn 0.1950 -0.0000 -0.9808
vn 0.5556 -0.0000 -0.8314
vn 0.8314 -0.0000 -0.5556
vn 0.9808 -0.0000 -0.1950
vn 0.9808 -0.0000 0.1950
vn 0.8314 -0.0000 0.5556
vn 0.5556 -0.0000 0.8314
vn 0.1950 -0.0000 0.9808
vn -0.1950 -0.0000 0.9808
vn -0.5556 -0.0000 0.8314
vn -0.8314 -0.0000 0.5556
vn -0.9808 -0.0000 0.1950
vn -0.9808 -0.0000 -0.1950
vn -0.8314 -0.0000 -0.5556
vn -0.0000 1.0000 -0.0000
vn -0.5556 -0.0000 -0.8314
vn -0.1950 -0.0000 -0.9808
vn -0.0000 -1.0000 -0.0000
vn 0.4647 -0.5481 -0.6955
vn 0.4647 0.5481 -0.6954
vn 0.6955 -0.5481 -0.4647
vn 0.6954 0.5481 -0.4647
vn 0.6955 -0.5481 0.4647
vn 0.6954 0.5481 0.4647
vn 0.4647 0.5481 0.6954
vn 0.4647 -0.5481 0.6955
vn -0.4647 -0.5481 0.6955
vn -0.4647 0.5481 0.6954
vn -0.6954 0.5481 0.4647
vn -0.6955 -0.5481 0.4647
vn -0.6955 -0.5481 -0.4647
vn -0.6954 0.5481 -0.4647
vn -0.4647 0.5481 -0.6954
vn -0.4647 -0.5481 -0.6955
vt 0.750000 0.125000
vt 0.687500 0.250000
vt 0.687500 0.125000
vt 0.750000 0.375000
vt 0.687500 0.500000
vt 0.687500 0.375000
vt 0.750000 0.750000
vt 0.687500 0.625000
vt 0.750000 0.625000
vt 0.750000 0.875000
vt 0.718750 1.000000
vt 0.687500 0.875000
vt 0.718750 0.000000
vt 0.750000 0.250000
vt 0.750000 0.500000
vt 0.687500 0.750000
vt 0.656250 1.000000
vt 0.625000 0.875000
vt 0.656250 0.000000
vt 0.625000 0.125000
vt 0.625000 0.375000
vt 0.625000 0.250000
vt 0.625000 0.625000
vt 0.625000 0.500000
vt 0.625000 0.750000
vt 0.562500 0.250000
vt 0.562500 0.500000
vt 0.562500 0.750000
vt 0.562500 0.125000
vt 0.562500 0.375000
vt 0.562500 0.625000
vt 0.593750 1.000000
vt 0.562500 0.875000
vt 0.593750 0.000000
vt 0.500000 0.125000
vt 0.500000 0.375000
vt 0.500000 0.750000
vt 0.500000 0.625000
vt 0.531250 1.000000
vt 0.500000 0.875000
vt 0.531250 0.000000
vt 0.500000 0.250000
vt 0.500000 0.500000
vt 0.437500 0.500000
vt 0.437500 0.375000
vt 0.437500 0.625000
vt 0.468750 1.000000
vt 0.437500 0.875000
vt 0.468750 0.000000
vt 0.437500 0.125000
vt 0.437500 0.250000
vt 0.437500 0.750000
vt 0.406250 0.000000
vt 0.375000 0.125000
vt 0.375000 0.375000
vt 0.375000 0.250000
vt 0.375000 0.625000
vt 0.375000 0.500000
vt 0.375000 0.875000
vt 0.375000 0.750000
vt 0.406250 1.000000
vt 0.312500 0.500000
vt 0.312500 0.750000
vt 0.312500 0.250000
vt 0.312500 0.125000
vt 0.312500 0.375000
vt 0.312500 0.625000
vt 0.343750 1.000000
vt 0.312500 0.875000
vt 0.343750 0.000000
vt 0.250000 0.125000
vt 0.250000 0.375000
vt 0.250000 0.750000
vt 0.250000 0.625000
vt 0.281250 1.000000
vt 0.250000 0.875000
vt 0.281250 0.000000
vt 0.250000 0.250000
vt 0.250000 0.500000
vt 0.187500 0.625000
vt 0.218750 1.000000
vt 0.187500 0.875000
vt 0.218750 0.000000
vt 0.187500 0.125000
vt 0.187500 0.375000
vt 0.187500 0.250000
vt 0.187500 0.500000
vt 0.187500 0.750000
vt 0.156250 0.000000
vt 0.125000 0.125000
vt 0.125000 0.375000
vt 0.125000 0.250000
vt 0.125000 0.625000
vt 0.125000 0.500000
vt 0.125000 0.875000
vt 0.125000 0.750000
vt 0.156250 1.000000
vt 0.062500 0.750000
vt 0.062500 0.250000
vt 0.062500 0.125000
vt 0.062500 0.500000
vt 0.062500 0.375000
vt 0.062500 0.625000
vt 0.093750 1.000000
vt 0.062500 0.875000
vt 0.093750 0.000000
vt 0.000000 0.125000
vt 0.000000 0.375000
vt 0.000000 0.750000
vt 0.000000 0.625000
vt 0.031250 1.000000
vt 0.000000 0.875000
vt 0.031250 0.000000
vt 0.000000 0.250000
vt 0.000000 0.500000
vt 1.000000 0.875000
vt 0.968750 1.000000
vt 0.937500 0.875000
vt 0.968750 0.000000
vt 1.000000 0.125000
vt 0.937500 0.125000
vt 1.000000 0.250000
vt 0.937500 0.375000
vt 0.937500 0.250000
vt 1.000000 0.625000
vt 0.937500 0.500000
vt 1.000000 0.500000
vt 0.937500 0.750000
vt 1.000000 0.750000
vt 1.000000 0.375000
vt 0.937500 0.625000
vt 0.875000 0.375000
vt 0.875000 0.250000
vt 0.875000 0.625000
vt 0.875000 0.500000
vt 0.875000 0.875000
vt 0.875000 0.750000
vt 0.875000 0.125000
vt 0.906250 1.000000
vt 0.906250 0.000000
vt 0.812500 0.250000
vt 0.812500 0.125000
vt 0.812500 0.500000
vt 0.812500 0.375000
vt 0.812500 0.750000
vt 0.812500 0.625000
vt 0.843750 1.000000
vt 0.812500 0.875000
vt 0.843750 0.000000
vt 0.781250 1.000000
vt 0.781250 0.000000
vt 1.000000 1.000000
vt 0.937500 1.000000
vt 0.875000 1.000000
vt 0.812500 1.000000
vt 0.750000 1.000000
vt 0.687500 1.000000
vt 0.625000 1.000000
vt 0.562500 1.000000
vt 0.500000 1.000000
vt 0.437500 1.000000
vt 0.375000 1.000000
vt 0.312500 1.000000
vt 0.250000 1.000000
vt 0.187500 1.000000
vt 0.080294 0.080294
vt 0.419706 0.080294
vt 0.419706 0.419706
vt 0.125000 1.000000
vt 0.062500 1.000000
vt 0.841844 0.028269
vt 0.528269 0.158156
vt 0.658156 0.471731
vt 0.341844 0.471731
vt 0.250000 0.490000
vt 0.158156 0.471731
vt 0.080294 0.419706
vt 0.028269 0.341844
vt 0.010000 0.250000
vt 0.028269 0.158156
vt 0.158156 0.028269
vt 0.250000 0.010000
vt 0.341844 0.028269
vt 0.471731 0.158156
vt 0.490000 0.250000
vt 0.471731 0.341844
vt 0.000000 1.000000
vt 0.750000 0.490000
vt 0.841844 0.471731
vt 0.919706 0.419706
vt 0.971731 0.341844
vt 0.990000 0.250000
vt 0.971731 0.158156
vt 0.919706 0.080294
vt 0.750000 0.010000
vt 0.658156 0.028269
vt 0.580294 0.080294
vt 0.510000 0.250000
vt 0.528269 0.341844
vt 0.580294 0.419706
s 0
usemtl Material.001
f 4/1/1 10/2/1 11/3/1
f 3/4/2 8/5/2 9/6/2
f 113/7/3 7/8/3 1/9/3
f 112/10/4 62/11/4 5/12/4
f 61/13/5 4/1/5 11/3/5
f 114/14/6 9/6/6 10/2/6
f 1/9/7 8/5/7 2/15/7
f 112/10/8 6/16/8 113/7/8
f 5/12/9 62/17/9 12/18/9
f 61/19/10 11/3/10 18/20/10
f 10/2/11 16/21/11 17/22/11
f 8/5/12 14/23/12 15/24/12
f 6/16/13 12/18/13 13/25/13
f 10/2/14 18/20/14 11/3/14
f 8/5/15 16/21/15 9/6/15
f 6/16/16 14/23/16 7/8/16
f 16/21/17 24/26/17 17/22/17
f 14/23/18 22/27/18 15/24/18
f 12/18/19 20/28/19 13/25/19
f 18/20/20 24/26/20 25/29/20
f 16/21/21 22/27/21 23/30/21
f 14/23/22 20/28/22 21/31/22
f 12/18/23 62/32/23 19/33/23
f 61/34/24 18/20/24 25/29/24
f 24/26/25 32/35/25 25/29/25
f 22/27/26 30/36/26 23/30/26
f 21/31/27 27/37/27 28/38/27
f 19/33/28 62/39/28 26/40/28
f 61/41/29 25/29/29 32/35/29
f 23/30/30 31/42/30 24/26/30
f 22/27/31 28/38/31 29/43/31
f 20/28/32 26/40/32 27/37/32
f 30/36/33 36/44/33 37/45/33
f 27/37/34 35/46/34 28/38/34
f 26/40/35 62/47/35 33/48/35
f 61/49/36 32/35/36 39/50/36
f 31/42/37 37/45/37 38/51/37
f 28/38/38 36/44/38 29/43/38
f 26/40/39 34/52/39 27/37/39
f 32/35/40 38/51/40 39/50/40
f 61/53/41 39/50/41 46/54/41
f 38/51/42 44/55/42 45/56/42
f 36/44/43 42/57/43 43/58/43
f 34/52/44 40/59/44 41/60/44
f 38/51/45 46/54/45 39/50/45
f 36/44/46 44/55/46 37/45/46
f 34/52/47 42/57/47 35/46/47
f 33/48/48 62/61/48 40/59/48
f 42/57/49 50/62/49 43/58/49
f 40/59/50 48/63/50 41/60/50
f 46/54/51 52/64/51 53/65/51
f 44/55/52 50/62/52 51/66/52
f 42/57/53 48/63/53 49/67/53
f 40/59/54 62/68/54 47/69/54
f 61/70/55 46/54/55 53/65/55
f 44/55/56 52/64/56 45/56/56
f 52/64/57 60/71/57 53/65/57
f 50/62/58 58/72/58 51/66/58
f 49/67/59 55/73/59 56/74/59
f 47/69/60 62/75/60 54/76/60
f 61/77/61 53/65/61 60/71/61
f 51/66/62 59/78/62 52/64/62
f 50/62/63 56/74/63 57/79/63
f 48/63/64 54/76/64 55/73/64
f 55/73/65 65/80/65 56/74/65
f 54/76/66 62/81/66 63/82/66
f 61/83/67 60/71/67 69/84/67
f 59/78/68 67/85/68 68/86/68
f 56/74/69 66/87/69 57/79/69
f 54/76/70 64/88/70 55/73/70
f 60/71/71 68/86/71 69/84/71
f 58/72/72 66/87/72 67/85/72
f 61/89/73 69/84/73 76/90/73
f 68/86/74 74/91/74 75/92/74
f 66/87/75 72/93/75 73/94/75
f 64/88/76 70/95/76 71/96/76
f 68/86/77 76/90/77 69/84/77
f 66/87/78 74/91/78 67/85/78
f 64/88/79 72/93/79 65/80/79
f 63/82/80 62/97/80 70/95/80
f 70/95/81 78/98/81 71/96/81
f 76/90/82 82/99/82 83/100/82
f 74/91/83 80/101/83 81/102/83
f 72/93/84 78/98/84 79/103/84
f 70/95/85 62/104/85 77/105/85
f 61/106/86 76/90/86 83/100/86
f 74/91/87 82/99/87 75/92/87
f 72/93/88 80/101/88 73/94/88
f 82/99/89 90/107/89 83/100/89
f 80/101/90 88/108/90 81/102/90
f 79/103/91 85/109/91 86/110/91
f 77/105/92 62/111/92 84/112/92
f 61/113/93 83/100/93 90/107/93
f 81/102/94 89/114/94 82/99/94
f 80/101/95 86/110/95 87/115/95
f 78/98/96 84/112/96 85/109/96
f 84/116/97 62/117/97 91/118/97
f 61/119/98 90/120/98 97/121/98
f 89/122/99 95/123/99 96/124/99
f 86/125/100 94/126/100 87/127/100
f 84/116/101 92/128/101 85/129/101
f 90/120/102 96/124/102 97/121/102
f 88/130/103 94/126/103 95/123/103
f 85/129/104 93/131/104 86/125/104
f 96/124/105 102/132/105 103/133/105
f 94/126/106 100/134/106 101/135/106
f 92/128/107 98/136/107 99/137/107
f 96/124/108 104/138/108 97/121/108
f 94/126/109 102/132/109 95/123/109
f 92/128/110 100/134/110 93/131/110
f 91/118/111 62/139/111 98/136/111
f 61/140/112 97/121/112 104/138/112
f 104/138/113 110/141/113 111/142/113
f 102/132/114 108/143/114 109/144/114
f 100/134/115 106/145/115 107/146/115
f 98/136/116 62/147/116 105/148/116
f 61/149/117 104/138/117 111/142/117
f 102/132/118 110/141/118 103/133/118
f 100/134/119 108/143/119 101/135/119
f 98/136/120 106/145/120 99/137/120
f 108/143/121 3/4/121 109/144/121
f 107/146/122 113/7/122 1/9/122
f 105/148/123 62/150/123 112/10/123
f 61/151/124 111/142/124 4/1/124
f 109/144/125 114/14/125 110/141/125
f 108/143/126 1/9/126 2/15/126
f 106/145/127 112/10/127 113/7/127
f 110/141/128 4/1/128 111/142/128
f 116/152/129 117/126/129 115/127/129
f 118/153/130 119/135/130 117/126/130
f 120/154/131 121/143/131 119/135/131
f 122/155/132 123/15/132 121/143/132
f 124/156/133 125/5/133 123/15/133
f 126/157/134 127/24/134 125/5/134
f 128/158/135 129/27/135 127/24/135
f 130/159/136 131/43/136 129/27/136
f 132/160/137 133/44/137 131/43/137
f 134/161/138 135/58/138 133/44/138
f 136/162/139 137/62/139 135/58/139
f 138/163/140 139/79/140 137/62/140
f 140/164/141 141/87/141 139/79/141
f 142/165/142 143/94/142 141/87/142
f 136/166/143 128/167/143 120/168/143
f 144/169/144 145/101/144 143/94/144
f 146/170/145 115/115/145 145/101/145
f 129/171/146 137/172/146 145/173/146
f 4/1/1 114/14/1 10/2/1
f 3/4/2 2/15/2 8/5/2
f 113/7/3 6/16/3 7/8/3
f 114/14/6 3/4/6 9/6/6
f 1/9/7 7/8/7 8/5/7
f 112/10/8 5/12/8 6/16/8
f 10/2/147 9/6/147 16/21/147
f 8/5/12 7/8/12 14/23/12
f 6/16/13 5/12/13 12/18/13
f 10/2/14 17/22/14 18/20/14
f 8/5/15 15/24/15 16/21/15
f 6/16/148 13/25/148 14/23/148
f 16/21/149 23/30/149 24/26/149
f 14/23/18 21/31/18 22/27/18
f 12/18/19 19/33/19 20/28/19
f 18/20/20 17/22/20 24/26/20
f 16/21/21 15/24/21 22/27/21
f 14/23/150 13/25/150 20/28/150
f 24/26/25 31/42/25 32/35/25
f 22/27/26 29/43/26 30/36/26
f 21/31/27 20/28/27 27/37/27
f 23/30/30 30/36/30 31/42/30
f 22/27/31 21/31/31 28/38/31
f 20/28/32 19/33/32 26/40/32
f 30/36/33 29/43/33 36/44/33
f 27/37/34 34/52/34 35/46/34
f 31/42/37 30/36/37 37/45/37
f 28/38/38 35/46/38 36/44/38
f 26/40/39 33/48/39 34/52/39
f 32/35/40 31/42/40 38/51/40
f 38/51/151 37/45/151 44/55/151
f 36/44/43 35/46/43 42/57/43
f 34/52/44 33/48/44 40/59/44
f 38/51/45 45/56/45 46/54/45
f 36/44/46 43/58/46 44/55/46
f 34/52/152 41/60/152 42/57/152
f 42/57/49 49/67/49 50/62/49
f 40/59/50 47/69/50 48/63/50
f 46/54/51 45/56/51 52/64/51
f 44/55/52 43/58/52 50/62/52
f 42/57/153 41/60/153 48/63/153
f 44/55/154 51/66/154 52/64/154
f 52/64/57 59/78/57 60/71/57
f 50/62/58 57/79/58 58/72/58
f 49/67/59 48/63/59 55/73/59
f 51/66/62 58/72/62 59/78/62
f 50/62/63 49/67/63 56/74/63
f 48/63/64 47/69/64 54/76/64
f 55/73/65 64/88/65 65/80/65
f 59/78/68 58/72/68 67/85/68
f 56/74/69 65/80/69 66/87/69
f 54/76/70 63/82/70 64/88/70
f 60/71/71 59/78/71 68/86/71
f 58/72/72 57/79/72 66/87/72
f 68/86/155 67/85/155 74/91/155
f 66/87/75 65/80/75 72/93/75
f 64/88/76 63/82/76 70/95/76
f 68/86/77 75/92/77 76/90/77
f 66/87/78 73/94/78 74/91/78
f 64/88/156 71/96/156 72/93/156
f 70/95/81 77/105/81 78/98/81
f 76/90/82 75/92/82 82/99/82
f 74/91/83 73/94/83 80/101/83
f 72/93/157 71/96/157 78/98/157
f 74/91/158 81/102/158 82/99/158
f 72/93/88 79/103/88 80/101/88
f 82/99/89 89/114/89 90/107/89
f 80/101/90 87/115/90 88/108/90
f 79/103/91 78/98/91 85/109/91
f 81/102/94 88/108/94 89/114/94
f 80/101/95 79/103/95 86/110/95
f 78/98/96 77/105/96 84/112/96
f 89/122/99 88/130/99 95/123/99
f 86/125/100 93/131/100 94/126/100
f 84/116/101 91/118/101 92/128/101
f 90/120/102 89/122/102 96/124/102
f 88/130/103 87/127/103 94/126/103
f 85/129/104 92/128/104 93/131/104
f 96/124/159 95/123/159 102/132/159
f 94/126/106 93/131/106 100/134/106
f 92/128/107 91/118/107 98/136/107
f 96/124/108 103/133/108 104/138/108
f 94/126/109 101/135/109 102/132/109
f 92/128/160 99/137/160 100/134/160
f 104/138/113 103/133/113 110/141/113
f 102/132/114 101/135/114 108/143/114
f 100/134/161 99/137/161 106/145/161
f 102/132/162 109/144/162 110/141/162
f 100/134/119 107/146/119 108/143/119
f 98/136/120 105/148/120 106/145/120
f 108/143/121 2/15/121 3/4/121
f 107/146/122 106/145/122 113/7/122
f 109/144/125 3/4/125 114/14/125
f 108/143/126 107/146/126 1/9/126
f 106/145/127 105/148/127 112/10/127
f 110/141/128 114/14/128 4/1/128
f 116/152/129 118/153/129 117/126/129
f 118/153/130 120/154/130 119/135/130
f 120/154/131 122/155/131 121/143/131
f 122/155/132 124/156/132 123/15/132
f 124/156/133 126/157/133 125/5/133
f 126/157/134 128/158/134 127/24/134
f 128/158/135 130/159/135 129/27/135
f 130/159/136 132/160/136 131/43/136
f 132/160/137 134/161/137 133/44/137
f 134/161/138 136/162/138 135/58/138
f 136/162/139 138/163/139 137/62/139
f 138/163/140 140/164/140 139/79/140
f 140/164/141 142/165/141 141/87/141
f 142/165/142 144/169/142 143/94/142
f 120/168/143 118/174/143 116/175/143
f 116/175/143 146/176/143 144/177/143
f 144/177/143 142/178/143 140/179/143
f 140/179/143 138/180/143 136/166/143
f 136/166/143 134/181/143 132/182/143
f 132/182/143 130/183/143 128/167/143
f 128/167/143 126/184/143 124/185/143
f 124/185/143 122/186/143 120/168/143
f 120/168/143 116/175/143 144/177/143
f 144/177/143 140/179/143 136/166/143
f 136/166/143 132/182/143 128/167/143
f 128/167/143 124/185/143 120/168/143
f 120/168/143 144/177/143 136/166/143
f 144/169/144 146/170/144 145/101/144
f 146/170/145 116/187/145 115/115/145
f 145/173/146 115/188/146 117/189/146
f 117/189/146 119/190/146 145/173/146
f 119/190/146 121/191/146 145/173/146
f 121/191/146 123/192/146 125/193/146
f 125/193/146 127/194/146 121/191/146
f 127/194/146 129/171/146 121/191/146
f 129/171/146 131/195/146 133/196/146
f 133/196/146 135/197/146 129/171/146
f 135/197/146 137/172/146 129/171/146
f 137/172/146 139/198/146 141/199/146
f 141/199/146 143/200/146 137/172/146
f 143/200/146 145/173/146 137/172/146
f 145/173/146 121/191/146 129/171/146
